<svg id="Capa_1" data-name="Capa 1" xmlns="http://www.w3.org/2000/svg" viewBox="0 0 432.19 167.46"><defs><style>.cls-1{fill:#fff;}</style></defs><title>ev</title><path class="cls-1" d="M154.43,4.16l-2.1,12.35H121.72l-2.23,13.35h25.59l-2,11.78h-25.6L115,56.9h31.16L144,69.25H97.68L108.55,4.16Z" transform="translate(-1.74 -1.96)"/><path class="cls-1" d="M205.22,20.13l-13.35,3.1q-2.29-8.11-11.11-8.11a10,10,0,0,0-6.51,2,5.88,5.88,0,0,0-2.41,4.71,4.86,4.86,0,0,0,2,4.19q2,1.43,7.49,2.81A67.53,67.53,0,0,1,193.82,33a16.45,16.45,0,0,1,7,6.19,18.13,18.13,0,0,1,2.46,9.7,19.94,19.94,0,0,1-6.77,15.37q-6.77,6.17-19.27,6.17-10.68,0-17.76-4.94t-8.8-14.85l13.92-1.91q2.15,9.68,13.21,9.68,5,0,7.68-2.14a6.66,6.66,0,0,0,2.67-5.42,5.13,5.13,0,0,0-2-4.54q-2-1.4-9.42-3.42A49.85,49.85,0,0,1,166,39a16.28,16.28,0,0,1-6.34-6.08,17.11,17.11,0,0,1-2.36-9A20,20,0,0,1,163.59,9.4q6.25-6.29,17.22-6.29Q199.69,3.11,205.22,20.13Z" transform="translate(-1.74 -1.96)"/><path class="cls-1" d="M261.44,81.55q-4.72.48-7.25.48-6.53,0-9.85-3.1A10.2,10.2,0,0,1,241,71.16a11.42,11.42,0,0,1,.1-1.29,30.94,30.94,0,0,1-5,.43,22.67,22.67,0,0,1-17.55-7.75q-7-7.75-7-20.58A46.18,46.18,0,0,1,219.83,15,26.11,26.11,0,0,1,242.51,3.15q12.3,0,19.19,8.13t6.89,20.39a45.31,45.31,0,0,1-5.22,21.94q-5.22,9.63-13.52,13.21.19,4.14,7,4.14a44.43,44.43,0,0,0,5.2-.33Zm-23.7-23.27q8.34,0,12.06-9.34a50.5,50.5,0,0,0,3.72-18.81q0-15-11-15-8.78,0-12.42,9.75a54.68,54.68,0,0,0-3.65,19.26Q226.49,58.28,237.74,58.28Z" transform="translate(-1.74 -1.96)"/><path class="cls-1" d="M334.44,4.16l-6.06,36.34a131.48,131.48,0,0,1-3,14.31,20.58,20.58,0,0,1-12.66,12.92,35.29,35.29,0,0,1-12.82,2.1q-11.87,0-18-5.25A17,17,0,0,1,275.79,51a42.12,42.12,0,0,1,.57-6.49l6.77-40.39h16l-6.32,38a43.33,43.33,0,0,0-.67,7q0,4.63,3.22,6.46a14.13,14.13,0,0,0,7.13,1.84,13.28,13.28,0,0,0,7.27-1.79,7.85,7.85,0,0,0,3.53-4.2q.74-2.41,2.46-12.71l5.82-34.62Z" transform="translate(-1.74 -1.96)"/><path class="cls-1" d="M392.25,4.16l-2.1,12.35H359.54l-2.23,13.35H382.9l-2,11.78h-25.6L352.79,56.9h31.16l-2.1,12.35H335.5L346.37,4.16Z" transform="translate(-1.74 -1.96)"/><path class="cls-1" d="M417.11,4.16,408.3,56.9h25.63l-2.05,12.35H391.29L402.17,4.16Z" transform="translate(-1.74 -1.96)"/><path class="cls-1" d="M182,88.5,152.12,153.6H136.36L126.78,88.5h15l6.3,48.69,21-48.69Z" transform="translate(-1.74 -1.96)"/><path class="cls-1" d="M234.08,88.5,232,100.85H201.37l-2.23,13.35h25.59l-2,11.78h-25.6l-2.55,15.26h31.16l-2.1,12.35H177.33L188.2,88.5Z" transform="translate(-1.74 -1.96)"/><path class="cls-1" d="M294.71,88.5,283.77,153.6H271.59l-19-47.17q-.19,4.73-3.1,22.3l-4.15,24.88H233.12L244,88.5h16.5l15.68,39.7q.14-2,2.86-19.11l3.44-20.59Z" transform="translate(-1.74 -1.96)"/><path class="cls-1" d="M296.78,153.6,307.66,88.5h19.17q10.11,0,15.71,3.17a24.68,24.68,0,0,1,9.37,10.16,34,34,0,0,1,3.77,16.38,41.88,41.88,0,0,1-3.19,16.38A32.31,32.31,0,0,1,344,146.78a24.66,24.66,0,0,1-10.66,5.77,65.53,65.53,0,0,1-13.81,1.19ZM313,142h7.83q11.83,0,15.7-7.89a37.93,37.93,0,0,0,3.86-16.91q0-17.21-13.69-17.21H320Z" transform="translate(-1.74 -1.96)"/><path class="cls-1" d="M417.29,88.5l-2.1,12.35H384.58l-2.23,13.35h25.59L406,126h-25.6l-2.55,15.26H409l-2.1,12.35H360.54L371.42,88.5Z" transform="translate(-1.74 -1.96)"/><polygon class="cls-1" points="0 41.56 35.99 20.78 71.98 0 71.98 41.56 71.98 83.12 35.99 62.34 0 41.56"/><polygon class="cls-1" points="101.93 125.91 65.94 146.69 29.95 167.46 29.95 125.91 29.95 84.35 65.94 105.13 101.93 125.91"/></svg>