<svg id="Capa_1" data-name="Capa 1" xmlns="http://www.w3.org/2000/svg" viewBox="0 0 180 180"><defs><style>.cls-1{fill:#ee7811;}.cls-2{fill:#fff;}</style></defs><title>Logo completo con fondo naranja 180x180</title><rect class="cls-1" width="180" height="180"/><path class="cls-2" d="M73.07,68.23l-.56,3.3H64.34l-.6,3.56h6.83l-.52,3.14H63.22l-.68,4.07h8.32l-.56,3.3H57.92l2.9-17.38Z"/><path class="cls-2" d="M86.63,72.5l-3.56.83a2.78,2.78,0,0,0-3-2.16,2.68,2.68,0,0,0-1.74.52,1.57,1.57,0,0,0-.64,1.26,1.3,1.3,0,0,0,.52,1.12,6.32,6.32,0,0,0,2,.75,18,18,0,0,1,3.35,1.13,4.39,4.39,0,0,1,1.88,1.65,4.84,4.84,0,0,1,.66,2.59,5.32,5.32,0,0,1-1.81,4.1,7.37,7.37,0,0,1-5.14,1.65,8.1,8.1,0,0,1-4.74-1.32,5.79,5.79,0,0,1-2.35-4l3.72-.51q.57,2.58,3.53,2.58a3.21,3.21,0,0,0,2-.57,1.78,1.78,0,0,0,.71-1.45,1.37,1.37,0,0,0-.54-1.21A10,10,0,0,0,79,78.58a13.31,13.31,0,0,1-2.86-1,4.34,4.34,0,0,1-1.69-1.62,4.57,4.57,0,0,1-.63-2.4,5.35,5.35,0,0,1,1.67-3.88A6.19,6.19,0,0,1,80.11,68Q85.16,68,86.63,72.5Z"/><path class="cls-2" d="M101.64,88.89q-1.26.13-1.94.13a3.72,3.72,0,0,1-2.63-.83,2.72,2.72,0,0,1-.88-2.08,3.06,3.06,0,0,1,0-.34,8.27,8.27,0,0,1-1.32.11,6.05,6.05,0,0,1-4.69-2.07,7.88,7.88,0,0,1-1.87-5.49,12.33,12.33,0,0,1,2.2-7.19A7,7,0,0,1,96.59,68a6.35,6.35,0,0,1,5.12,2.17,8.13,8.13,0,0,1,1.84,5.44,12.09,12.09,0,0,1-1.39,5.86A7.56,7.56,0,0,1,98.55,85q.05,1.1,1.87,1.1a11.88,11.88,0,0,0,1.39-.09Zm-6.33-6.21a3.37,3.37,0,0,0,3.22-2.49,13.48,13.48,0,0,0,1-5q0-4-2.93-4a3.42,3.42,0,0,0-3.32,2.6,14.61,14.61,0,0,0-1,5.14Q92.31,82.68,95.31,82.68Z"/><path class="cls-2" d="M121.13,68.23l-1.62,9.7a35.07,35.07,0,0,1-.8,3.82,5.5,5.5,0,0,1-3.38,3.45,9.42,9.42,0,0,1-3.42.56,7.2,7.2,0,0,1-4.8-1.4,4.54,4.54,0,0,1-1.64-3.62,11.24,11.24,0,0,1,.15-1.73l1.81-10.78h4.27L110,78.38a11.57,11.57,0,0,0-.18,1.87A1.82,1.82,0,0,0,110.7,82a3.77,3.77,0,0,0,1.9.49,3.55,3.55,0,0,0,1.94-.48,2.09,2.09,0,0,0,.94-1.12q.2-.64.66-3.39l1.55-9.24Z"/><path class="cls-2" d="M136.57,68.23l-.56,3.3h-8.17l-.6,3.56h6.83l-.52,3.14h-6.84L126,82.31h8.32l-.56,3.3H121.41l2.9-17.38Z"/><path class="cls-2" d="M143.2,68.23l-2.35,14.08h6.84l-.55,3.3H136.31l2.9-17.38Z"/><path class="cls-2" d="M80.43,90.75l-8,17.38H68.25L65.69,90.75h4l1.68,13,5.6-13Z"/><path class="cls-2" d="M94.34,90.75,93.78,94H85.6L85,97.61h6.83l-.52,3.14H84.48l-.68,4.07h8.32l-.56,3.3H79.19l2.9-17.38Z"/><path class="cls-2" d="M110.53,90.75l-2.92,17.38h-3.25L99.28,95.53q-.05,1.26-.83,6l-1.11,6.64H94.08L97,90.75h4.41l4.19,10.6q0-.52.76-5.1l.92-5.5Z"/><path class="cls-2" d="M111.08,108.13,114,90.75h5.12a8.59,8.59,0,0,1,4.19.85,6.59,6.59,0,0,1,2.5,2.71,9.08,9.08,0,0,1,1,4.37,11.18,11.18,0,0,1-.85,4.37,8.63,8.63,0,0,1-2.27,3.25,6.59,6.59,0,0,1-2.85,1.54,17.51,17.51,0,0,1-3.69.32Zm4.34-3.09h2.09q3.16,0,4.19-2.11a10.12,10.12,0,0,0,1-4.51q0-4.6-3.66-4.6h-1.78Z"/><path class="cls-2" d="M143.25,90.75l-.56,3.3h-8.17l-.6,3.56h6.83l-.52,3.14H133.4l-.68,4.07H141l-.56,3.3H128.1L131,90.75Z"/><polygon class="cls-2" points="32.31 78.74 41.92 73.19 51.52 67.64 51.52 78.74 51.52 89.84 41.92 84.29 32.31 78.74"/><polygon class="cls-2" points="59.52 101.26 49.91 106.81 40.3 112.36 40.3 101.26 40.3 90.16 49.91 95.71 59.52 101.26"/></svg>